mtllib triangle.mtl
o Generic
v 0.250000 0.778594 -0.015392
v -0.616025 -0.721406 -0.015392
v -0.616025 -0.721406 0.084608
v 0.250000 0.778594 0.084608
v 1.116025 -0.721406 -0.015392
v 1.116025 -0.721406 0.084608
v 0.250000 0.778594 -0.015392
v -0.616025 -0.721406 -0.015392
v -0.616025 -0.721406 0.084608
v 0.250000 0.778594 0.084608
v 1.116025 -0.721406 -0.015392
v 1.116025 -0.721406 0.084608
v 0.250000 0.943763 -0.015392
v -0.759066 -0.803991 -0.015392
v -0.759066 -0.803991 0.084608
v 0.250000 0.943763 0.084608
v 1.259066 -0.803991 -0.015392
v 1.259066 -0.803991 0.084608
vn 0.000000 0.000000 0.000000
vn 0.000000 0.000000 0.000000
vn 0.000000 0.000000 0.000000
vn 0.000000 0.000000 0.000000
vn 0.000000 0.000000 0.000000
vn 0.000000 0.000000 0.000000
vn 0.000000 0.447214 -0.894427
vn -0.387298 -0.223607 -0.894427
vn -0.387298 -0.223607 0.894427
vn 0.000000 0.447214 0.894427
vn 0.387298 -0.223607 -0.894427
vn 0.387298 -0.223607 0.894427
vn 0.000000 0.447214 -0.894427
vn -0.387298 -0.223607 -0.894427
vn -0.387298 -0.223607 0.894427
vn 0.000000 0.447214 0.894427
vn 0.387298 -0.223607 -0.894427
vn 0.387298 -0.223607 0.894427
vt 0.928725 0.500000
vt 0.071275 0.995049
vt 0.071275 0.995049
vt 0.928725 0.500000
vt 0.071275 0.004950
vt 0.071275 0.004950
vt 0.928725 0.500000
vt 0.071275 0.995049
vt 0.071275 0.995049
vt 0.928725 0.500000
vt 0.071275 0.995049
vt 0.928725 0.500000
vt 0.928725 0.500000
vt 0.071275 0.995049
vt 0.071275 0.004951
vt 0.071275 0.004950
vt 0.071275 0.004951
vt 0.071275 0.004950
g Generic
usemtl Default
f 13/1/13 14/2/14 15/3/15 16/4/16 
f 14/2/14 17/5/17 18/6/18 15/3/15 
f 17/5/17 13/1/13 16/4/16 18/6/18 
f 1/7/1 2/8/2 8/9/8 7/10/7 
f 3/11/3 4/12/4 10/13/10 9/14/9 
f 2/8/2 5/15/5 11/16/11 8/9/8 
f 6/17/6 3/11/3 9/14/9 12/18/12 
f 5/15/5 1/7/1 7/10/7 11/16/11 
f 4/12/4 6/17/6 12/18/12 10/13/10 
f 7/10/7 8/9/8 14/2/14 13/1/13 
f 9/14/9 10/13/10 16/4/16 15/3/15 
f 8/9/8 11/16/11 17/5/17 14/2/14 
f 12/18/12 9/14/9 15/3/15 18/6/18 
f 11/16/11 7/10/7 13/1/13 17/5/17 
f 10/13/10 12/18/12 18/6/18 16/4/16 
f 7/10/7 8/9/8 9/14/9 10/13/10 
f 11/16/11 12/18/12 9/14/9 8/9/8 
f 7/10/7 10/13/10 12/18/12 11/16/11 
o Cylinder
v 0.250000 0.778594 -0.057118
v 0.250000 0.778594 0.042882
v 1.116025 -0.721406 -0.057118
v 1.116025 -0.721406 0.042882
v -0.616025 -0.721406 -0.057118
v -0.616025 -0.721406 0.042882
v 0.250000 -0.221406 0.042882
v 0.250000 -0.221406 -0.057118
vn 0.000000 0.447214 -0.894427
vn 0.000000 0.447214 0.894427
vn 0.387298 -0.223607 -0.894427
vn 0.387298 -0.223607 0.894427
vn -0.387298 -0.223607 -0.894427
vn -0.387298 -0.223607 0.894427
vn 0.000000 0.000000 1.000000
vn 0.000000 0.000000 -1.000000
vt 0.071275 0.004950
vt 0.928725 0.500000
vt 0.928725 0.500000
vt 0.071275 0.004950
vt 0.357092 0.500000
vt 0.357092 0.500000
vt 0.071275 0.995049
vt 0.071275 0.995049
g Cylinder
usemtl Default
f 21/19/21 19/20/19 20/21/20 22/22/22 
f 22/22/22 20/21/20 25/23/25 
f 19/20/19 21/19/21 26/24/26 
f 23/25/23 21/19/21 22/22/22 24/26/24 
f 24/26/24 22/22/22 25/23/25 
f 21/19/21 23/25/23 26/24/26 
f 19/20/19 23/25/23 24/26/24 20/21/20 
f 20/21/20 24/26/24 25/23/25 
f 23/25/23 19/20/19 26/24/26 
